<?xml version="1.0" encoding="UTF-8" standalone="no"?>
<!-- Created with Inkscape (http://www.inkscape.org/) -->

<svg
   xmlns:dc="http://purl.org/dc/elements/1.1/"
   xmlns:cc="http://creativecommons.org/ns#"
   xmlns:rdf="http://www.w3.org/1999/02/22-rdf-syntax-ns#"
   xmlns:svg="http://www.w3.org/2000/svg"
   xmlns="http://www.w3.org/2000/svg"
   xmlns:inkscape="http://www.inkscape.org/namespaces/inkscape"
   version="1.1"
   width="217.2"
   height="240.35001"
   id="svg2"
   xml:space="preserve"><metadata
     id="metadata8"><rdf:RDF><cc:Work
         rdf:about=""><dc:format>image/svg+xml</dc:format><dc:type
           rdf:resource="http://purl.org/dc/dcmitype/StillImage" /></cc:Work></rdf:RDF></metadata><defs
     id="defs6"><clipPath
       id="clipPath18"><path
         d="M 0,1922.82 0,0 l 1737.58,0 0,1922.82 -1737.58,0 z"
         inkscape:connector-curvature="0"
         id="path20" /></clipPath></defs><g
     transform="matrix(1.25,0,0,-1.25,0,240.35)"
     id="g10"><g
       transform="scale(0.1,0.1)"
       id="g12"><g
         id="g14"><g
           clip-path="url(#clipPath18)"
           id="g16"><path
             d="m 371.992,1621.96 -45.586,67.46 c -2.265,3.32 -11.718,18.01 -18.906,28.67 l -0.312,-0.19 31.679,-118.36 -15.742,-10.66 -97.891,73.35 -0.312,-0.19 c 7.109,-10.51 17.187,-24.77 19.453,-28.09 l 45.586,-67.46 -15.43,-10.43 -77.187,114.22 22.812,15.43 98.906,-73.83 0.313,0.24 -31.797,119.18 22.656,15.31 77.188,-114.22 -15.43,-10.43"
             inkscape:connector-curvature="0"
             id="path22"
             style="fill:#231f20;fill-opacity:1;fill-rule:nonzero;stroke:none" /><path
             d="m 432.5,1654.11 -17.031,-8.91 -63.75,122.23 17.07,8.87 63.711,-122.19"
             inkscape:connector-curvature="0"
             id="path24"
             style="fill:#231f20;fill-opacity:1;fill-rule:nonzero;stroke:none" /><path
             d="m 472.383,1691.53 66.484,27.74 6.367,-15.24 -84.218,-35.15 -53.086,127.18 17.734,7.42 46.719,-111.95"
             inkscape:connector-curvature="0"
             id="path26"
             style="fill:#231f20;fill-opacity:1;fill-rule:nonzero;stroke:none" /><path
             d="m 562.266,1755.55 2.656,-9.21 c 4.57,-15.9 14.023,-19.34 26.758,-15.67 17.148,4.92 19.023,16.25 15.273,29.18 l -28.203,97.77 18.477,5.32 27.851,-96.64 c 8.945,-31.02 -9.57,-45.35 -28.008,-50.67 -31.797,-9.18 -44.765,9.46 -48.359,21.84 l -3.75,13.08 17.305,5"
             inkscape:connector-curvature="0"
             id="path28"
             style="fill:#231f20;fill-opacity:1;fill-rule:nonzero;stroke:none" /><path
             d="m 729.023,1903.45 -17.851,-2.66 -2.891,19.37 17.852,2.66 2.89,-19.37 z m -31.757,-4.77 -17.813,-2.66 -2.891,19.38 17.813,2.65 2.891,-19.37 z m 11.054,-27.07 c -30.547,-4.57 -45.508,-30.66 -40.703,-62.77 4.766,-32.11 26.68,-52.7 57.227,-48.17 30.586,4.57 45.508,30.67 40.703,62.78 -4.766,32.1 -26.68,52.73 -57.227,48.16 z m 18.985,-127.27 c -52.5,-7.81 -74.883,32.15 -79.297,61.61 -4.375,29.41 5.39,74.17 57.89,81.99 52.5,7.85 74.883,-32.15 79.258,-61.56 4.375,-29.46 -5.351,-74.22 -57.851,-82.04"
             inkscape:connector-curvature="0"
             id="path30"
             style="fill:#231f20;fill-opacity:1;fill-rule:nonzero;stroke:none" /><path
             d="m 932.031,1757.9 1.25,81.4 c 0,4.03 0.703,21.49 0.938,34.34 l -0.469,0 -41.758,-115.12 -18.984,0.28 -38.164,116.21 -0.391,0.04 c -0.234,-12.7 -0.117,-30.16 -0.156,-34.18 l -1.289,-81.41 -18.594,0.27 2.148,137.86 27.54,-0.43 38.71,-117.19 0.43,0 42.227,115.9 27.265,-0.43 -2.109,-137.85 -18.594,0.31"
             inkscape:connector-curvature="0"
             id="path32"
             style="fill:#231f20;fill-opacity:1;fill-rule:nonzero;stroke:none" /><path
             d="m 1085.39,1892.27 -17.81,3.01 3.28,19.3 17.73,-2.97 -3.2,-19.34 z m -31.64,5.35 -17.81,2.97 3.28,19.34 17.73,-3.01 -3.2,-19.3 z m 12.03,-100.19 -10.62,63.32 -0.39,0.08 -32.5,-56.06 43.51,-7.34 z m -52.11,-7.97 -21.326,-37.11 -19.532,3.32 75.628,127.07 21.48,-3.63 27.89,-144.49 -20.7,3.47 -7.19,41.92 -56.25,9.45"
             inkscape:connector-curvature="0"
             id="path34"
             style="fill:#231f20;fill-opacity:1;fill-rule:nonzero;stroke:none" /><path
             d="m 1159.77,1794.5 42.42,-13.63 c 13.44,-4.3 28.59,-5.55 34.84,13.83 6.49,20.31 -8.2,26.83 -17.26,29.76 l -45.63,14.65 -14.37,-44.61 z m -22.89,-71.48 -18.29,5.86 42.11,131.28 62.58,-20.11 c 22.27,-7.15 42.11,-21.8 33.2,-49.57 -6.25,-19.38 -18.67,-23.25 -28.98,-25.39 6.8,-5.59 13.44,-11.37 8.36,-29.89 l -6.56,-24.14 c -2.11,-7.34 -2.11,-10.39 2.58,-15.35 l -0.94,-2.89 -22.42,7.19 c -0.08,8.9 5.78,28.98 7.34,33.94 3.44,10.78 5.23,24.1 -16.64,31.14 l -44.3,14.25 -18.04,-56.32"
             inkscape:connector-curvature="0"
             id="path36"
             style="fill:#231f20;fill-opacity:1;fill-rule:nonzero;stroke:none" /><path
             d="m 1273.67,1672.9 -17.19,8.51 61.18,123.56 17.18,-8.52 -29.61,-59.88 91.33,29.3 23.83,-11.8 -77.81,-23.59 18.05,-100.67 -22.35,11.1 -13.9,84.02 -29.22,-8.67 -21.49,-43.36"
             inkscape:connector-curvature="0"
             id="path38"
             style="fill:#231f20;fill-opacity:1;fill-rule:nonzero;stroke:none" /><path
             d="m 1442.11,1740.98 95.7,-64.6 -9.29,-13.72 -39.85,26.96 -67.89,-100.55 -15.94,10.74 67.89,100.55 -39.84,26.95 9.22,13.67"
             inkscape:connector-curvature="0"
             id="path40"
             style="fill:#231f20;fill-opacity:1;fill-rule:nonzero;stroke:none" /><path
             d="m 370.469,518.051 c 14.062,0 25.508,11.41 25.508,25.469 0,14.14 -11.446,25.55 -25.508,25.55 -14.102,0 -25.547,-11.41 -25.547,-25.55 0,-14.059 11.445,-25.469 25.547,-25.469"
             inkscape:connector-curvature="0"
             id="path42"
             style="fill:#00a770;fill-opacity:1;fill-rule:nonzero;stroke:none" /><path
             d="m 339.062,176.57 c -45.156,34.141 -86.835,72.5 -124.335,114.45 l 119.062,160.39 210.82,0 -205.547,-274.84"
             inkscape:connector-curvature="0"
             id="path44"
             style="fill:#00a770;fill-opacity:1;fill-rule:nonzero;stroke:none" /><path
             d="M 517.734,72.4219 C 469.961,93.1289 424.453,117.891 381.641,146.41 l 229.023,305 191.055,0 L 517.734,72.4219"
             inkscape:connector-curvature="0"
             id="path46"
             style="fill:#00a770;fill-opacity:1;fill-rule:nonzero;stroke:none" /><path
             d="M 741.289,9.14062 C 681.797,17.6602 624.258,32.1914 569.336,51.9609 l 298.242,399.4491 204.062,0 L 741.289,9.14062"
             inkscape:connector-curvature="0"
             id="path48"
             style="fill:#00a770;fill-opacity:1;fill-rule:nonzero;stroke:none" /><path
             d="M 1030,14.6094 C 977.812,5 923.945,0 868.867,0 846.406,0 824.141,0.859375 802.109,2.5 l 335.621,448.91 219.54,0 L 1030,14.6094"
             inkscape:connector-curvature="0"
             id="path50"
             style="fill:#00a770;fill-opacity:1;fill-rule:nonzero;stroke:none" /><path
             d="M 1635.78,450.781 C 1526.09,249.609 1336.41,96.6406 1108.28,32.7383 l 314.92,418.6717 212.58,-0.629"
             inkscape:connector-curvature="0"
             id="path52"
             style="fill:#00a770;fill-opacity:1;fill-rule:nonzero;stroke:none" /><path
             d="m 1737.58,870.711 c -0.63,27.258 -2.58,54.141 -5.7,80.703 l -308.05,-410.945 66.01,0 247.74,330.242"
             inkscape:connector-curvature="0"
             id="path54"
             style="fill:#00a770;fill-opacity:1;fill-rule:nonzero;stroke:none" /><path
             d="m 1675.63,1168.41 c -7.82,19.06 -16.25,37.77 -25.4,56.13 l -511.95,-684.071 65.94,0 471.41,627.941"
             inkscape:connector-curvature="0"
             id="path56"
             style="fill:#00a770;fill-opacity:1;fill-rule:nonzero;stroke:none" /><path
             d="m 1556.09,1372.7 c -11.32,14.26 -23.04,28.17 -35.15,41.68 l -652.815,-873.911 66.094,0 621.871,832.231"
             inkscape:connector-curvature="0"
             id="path58"
             style="fill:#00a770;fill-opacity:1;fill-rule:nonzero;stroke:none" /><path
             d="m 1365.47,1550.36 c -46.56,31.87 -96.56,59.37 -149.22,81.91 L 435.195,587.031 c 15.508,-6.871 32.461,-16.871 51.211,-31.172 33.36,-25.539 116.758,-26.328 143.242,9.219 l 735.822,985.282"
             inkscape:connector-curvature="0"
             id="path60"
             style="fill:#00a770;fill-opacity:1;fill-rule:nonzero;stroke:none" /><path
             d="M 81.9922,489.922 983.359,1695.71 c 63.051,-8.12 124.061,-22.89 182.111,-43.55 L 380.43,601.488 C 276.758,614.461 306.719,493.988 81.9922,489.922"
             inkscape:connector-curvature="0"
             id="path62"
             style="fill:#00a770;fill-opacity:1;fill-rule:nonzero;stroke:none" /><path
             d="M 0.078125,837.66 C 0.0390625,842.27 0,846.879 0,851.488 0,1237 261.367,1562.66 619.922,1667.59 L 0.078125,837.66"
             inkscape:connector-curvature="0"
             id="path64"
             style="fill:#00a770;fill-opacity:1;fill-rule:nonzero;stroke:none" /><path
             d="m 699.648,1686.92 c 54.766,10.59 111.329,16.13 169.219,16.13 17.813,0 35.508,-0.54 53.047,-1.56 L 57.9297,545.078 C 31.5625,612.031 13.5938,683.129 5.27344,757.031 L 699.648,1686.92"
             inkscape:connector-curvature="0"
             id="path66"
             style="fill:#00a770;fill-opacity:1;fill-rule:nonzero;stroke:none" /><path
             d="m 179.766,332.82 c -29.141,37.102 -55.274,76.711 -77.93,118.282 l 166.094,0 -88.164,-118.282"
             inkscape:connector-curvature="0"
             id="path68"
             style="fill:#00a770;fill-opacity:1;fill-rule:nonzero;stroke:none" /></g></g></g></g></svg>