<svg id="artwork" xmlns="http://www.w3.org/2000/svg" viewBox="0 0 1331.55 859.64"><defs><style>.cls-1{fill:#2147ed}</style></defs><path class="cls-1" d="m64.85 339.24-.84-4.7C220.72 245 390.1 191.09 571.08 177.5q45.45-3.41 91.11-3.4c152.87 0 307.12 28.44 461.12 82.76l.83 4.28c-66.53-18.37-177.84-28.62-312.14-28.62-71.24 0-148.94 2.88-229.87 9-230 17.25-425.83 55.93-517.3 97.75m1299.57-77.5c-78.83-42.76-227.82-90.64-398.22-124.52C838.82 112 723.35 99.37 640.09 99.37c-29.11 0-54.29 1.55-74.66 4.64V99a847.74 847.74 0 0 1 232.62-32.74A865.87 865.87 0 0 1 966.49 83c136.64 27.08 269.73 86.26 397.91 173.45v5.33" transform="translate(-42.89 -66.26)"/><path class="cls-1" d="m43.41 456.86-.52-6.06c205-98.07 422.17-150.55 649.67-151.5h6.87c227 0 452.86 51.28 674.49 148.16l.51 5.44c-121.78-43.22-371-72.7-657-72.7h-17.84c-288.88 1.25-537.49 32.41-656.16 76.63" transform="translate(-42.89 -66.26)"/><path d="m241 632.3-1 1.3c-4.6 5.9-9.6 10.3-14.9 12.9a35.66 35.66 0 0 1-16.3 4 46.56 46.56 0 0 1-19.7-4 45.67 45.67 0 0 1-15.1-10.9 49.06 49.06 0 0 1-9.8-16.4 61.1 61.1 0 0 1-3.5-20.9 55.53 55.53 0 0 1 3.5-19.7 47.78 47.78 0 0 1 9.8-15.9 46.58 46.58 0 0 1 15.1-10.7 48.11 48.11 0 0 1 19.7-3.9 38.42 38.42 0 0 1 14.4 2.8c4.7 1.8 9.7 5.5 14.8 11l1.1 1.1 22.9-16.8-1.2-1.4c-7.4-8.5-15.5-14.6-24.1-18.2a72 72 0 0 0-28-5.4 86.5 86.5 0 0 0-31.5 5.6 71.36 71.36 0 0 0-24.8 15.9 72.78 72.78 0 0 0-16.3 24.9 86 86 0 0 0-5.9 32.3 82.35 82.35 0 0 0 5.9 31.6 73 73 0 0 0 16.3 24.5 71.65 71.65 0 0 0 24.8 15.8 86.5 86.5 0 0 0 31.5 5.6 76.11 76.11 0 0 0 30.8-6.3 59.36 59.36 0 0 0 24.7-20.3l1-1.4Zm162.7-107.2H379l-64.7 148.6H347l13.1-33.2h60.6l13.5 33.2h33.3Zm6.8 89.8h-40.1l20.2-52.5Zm201.6-5.7c10-1.9 17.9-6.3 23.5-13.1 6-7.4 9.1-16.7 9.1-27.5 0-8.5-1.6-15.6-4.7-21.2a36 36 0 0 0-12.7-13.3 53.44 53.44 0 0 0-17.9-6.9 106.35 106.35 0 0 0-20.5-2h-52.2v148.6H566v-61.5h16l33.1 60.6.5.9h35.3Zm-46.2-58.5h20.6a83.46 83.46 0 0 1 9.9.6 31.32 31.32 0 0 1 9 2.4 15.26 15.26 0 0 1 6.3 5.2q2.4 3.45 2.4 9.3c0 4.4-.9 7.8-2.5 10.2a15.78 15.78 0 0 1-6.8 5.4 32.17 32.17 0 0 1-9.6 2.3c-3.6.3-7.3.5-10.9.5h-18.4ZM842.4 617a35.41 35.41 0 0 0-6.8-11.2 36.54 36.54 0 0 0-10.5-8 39.44 39.44 0 0 0-7.7-2.9 39.27 39.27 0 0 0 13.9-10.1c4.9-5.6 7.4-12.8 7.4-21.4a36.45 36.45 0 0 0-4.1-17.7 34.15 34.15 0 0 0-10.7-11.9 43.25 43.25 0 0 0-14.8-6.6 71.13 71.13 0 0 0-16.6-2h-58.3v148.6h54a100.44 100.44 0 0 0 20.5-2.1 55.34 55.34 0 0 0 18.2-7.1 39.4 39.4 0 0 0 13-13.3c3.3-5.5 5-12.5 5-20.7a38.2 38.2 0 0 0-2.5-13.6Zm-79-7.2h23.1c10.1 0 17.7 1.4 22.4 4.3 4.5 2.7 6.6 7.4 6.6 14.5 0 4.4-.9 7.9-2.7 10.4a19.24 19.24 0 0 1-7.1 5.9 30.14 30.14 0 0 1-9.8 2.7 97.56 97.56 0 0 1-10.4.6h-22.1Zm40.2-30.3c-4 3.1-10.1 4.7-18.3 4.7h-21.8v-33.4H783c9.4 0 16.3 1.4 20.4 4.3s5.9 6.9 5.9 12.6a13.76 13.76 0 0 1-5.7 11.8Zm262-12.5a73.06 73.06 0 0 0-16.4-24.8 71.74 71.74 0 0 0-25-15.7 88.1 88.1 0 0 0-31.8-5.1 86.5 86.5 0 0 0-31.5 5.6 71.36 71.36 0 0 0-24.8 15.9 72.78 72.78 0 0 0-16.3 24.9 86 86 0 0 0-5.9 32.3 82.35 82.35 0 0 0 5.9 31.6 73 73 0 0 0 16.3 24.5 71.65 71.65 0 0 0 24.8 15.8 89.27 89.27 0 0 0 63.3-.4 74.17 74.17 0 0 0 25-16.1 72.22 72.22 0 0 0 16.4-24.6 82.72 82.72 0 0 0 5.9-31.6 85.62 85.62 0 0 0-5.9-32.3Zm-72.9 83.6a46.56 46.56 0 0 1-19.7-4 45.67 45.67 0 0 1-15.1-10.9 49.06 49.06 0 0 1-9.8-16.4 61.1 61.1 0 0 1-3.5-20.9 55.53 55.53 0 0 1 3.5-19.7 47.78 47.78 0 0 1 9.8-15.9 46.58 46.58 0 0 1 15.1-10.7 48.11 48.11 0 0 1 19.7-3.9 48.93 48.93 0 0 1 19.8 3.9 44.55 44.55 0 0 1 15.2 10.7 48.81 48.81 0 0 1 9.8 15.9 55.53 55.53 0 0 1 3.5 19.7 61.1 61.1 0 0 1-3.5 20.9 48.09 48.09 0 0 1-9.8 16.4 46.48 46.48 0 0 1-15.2 10.9 47.35 47.35 0 0 1-19.8 4Z" transform="translate(-42.89 -66.26)"/><path d="M1204.71 458.84v104.4l-68-104.4h-37v148.7h29.3v-107.8l69 107 .5.8h35.5v-148.7h-29.3zm-971.15 248.4v26.9h44.5v121.8h29.3v-121.8h44.5v-26.9h-118.3z"/><path d="M542.35 857.6c10-1.9 17.9-6.3 23.5-13.1 6-7.4 9.1-16.7 9.1-27.5 0-8.5-1.6-15.6-4.7-21.2a36 36 0 0 0-12.7-13.3 53.44 53.44 0 0 0-17.9-6.9 106.35 106.35 0 0 0-20.5-2H467v148.6h29.2v-61.5h16.1l33.1 60.6.5.9h35.3Zm-46.2-58.5h20.6a83.46 83.46 0 0 1 9.9.6 31.32 31.32 0 0 1 9 2.4 15.26 15.26 0 0 1 6.3 5.2q2.4 3.45 2.4 9.3c0 4.4-.9 7.8-2.5 10.2a15.78 15.78 0 0 1-6.8 5.4 32.17 32.17 0 0 1-9.6 2.3c-3.6.3-7.3.5-10.9.5h-18.4Zm252.1-25.6v92.8a37.55 37.55 0 0 1-1.6 10.7 30.56 30.56 0 0 1-5.1 10.2 27.78 27.78 0 0 1-9.5 7.6q-5.85 3-14.7 3t-14.7-3a27.78 27.78 0 0 1-9.5-7.6 28.79 28.79 0 0 1-5.1-10.2 41.44 41.44 0 0 1-1.6-10.7v-92.8h-29.3v93.6a63 63 0 0 0 4.5 24.3 52.66 52.66 0 0 0 12.7 18.5 55.59 55.59 0 0 0 19.1 11.7 71.13 71.13 0 0 0 47.6 0 55.74 55.74 0 0 0 19-11.7 56.46 56.46 0 0 0 12.7-18.5 61.36 61.36 0 0 0 4.6-24.4v-93.6h-29.1Zm150.8 152.4a79.56 79.56 0 0 1-26.6-4.6 52.38 52.38 0 0 1-22.3-15.7l-1-1.2 22.1-21.5 1.1 1.8a30.93 30.93 0 0 0 11.8 10.6 32.94 32.94 0 0 0 24.1 2.6 25.67 25.67 0 0 0 7.7-3.5 17.3 17.3 0 0 0 5.4-5.7 15.33 15.33 0 0 0 2-7.8c0-4.8-1.5-8.4-4.5-11a46 46 0 0 0-12.2-7c-5-2-10.5-3.8-16.5-5.6a70.3 70.3 0 0 1-17-7.5 42.69 42.69 0 0 1-13.3-12.8q-5.4-8.1-5.4-21.6c0-7.8 1.6-14.6 4.8-20.3a44.09 44.09 0 0 1 12.6-14.2 56.78 56.78 0 0 1 17.7-8.4 75.46 75.46 0 0 1 42.9.8 53.26 53.26 0 0 1 20 11.9l1.3 1.2-21.5 22.7-1.2-1.8a22 22 0 0 0-10.2-8.1 37.22 37.22 0 0 0-22.1-1.7 22.12 22.12 0 0 0-7 3 14.71 14.71 0 0 0-4.9 5.3 15.26 15.26 0 0 0-1.8 7.6c0 4.4 1.5 7.6 4.4 9.9a47.31 47.31 0 0 0 12.3 6.5c5 1.9 10.5 3.7 16.5 5.5a68.85 68.85 0 0 1 17 7.6 43.07 43.07 0 0 1 13.2 13c3.6 5.5 5.4 12.8 5.4 21.7a47.57 47.57 0 0 1-4.5 21.2 42.47 42.47 0 0 1-12.1 15 53.55 53.55 0 0 1-17.5 8.9 64.53 64.53 0 0 1-20.7 3.2Zm197.3-3.7h-29.3V800.4h-44.5v-26.8h118.3v26.8h-44.5Z" transform="translate(-42.89 -66.26)"/></svg>